<svg width="580" height="400" xmlns="http://www.w3.org/2000/svg" class="" style="">
 <!-- Created with Method Draw - http://github.com/duopixel/Method-Draw/ -->

 <g>
  <title>background</title>
  <path fill="#fff" id="canvas_background" height="402" width="582" d="M-1 -1 L581 -1 L581 401 L-1 401 Z" class="QukNSbBO_0"></path>
  <g display="none" overflow="visible" y="0" x="0" height="100%" width="100%" id="canvasGrid">
   <path fill="url(#gridpattern)" stroke-width="0" height="100%" width="100%" d="M0 0 L100 0 L100 100 L0 100 Z" class="QukNSbBO_1"></path>
  </g>
 </g>
 <g>
  <title>Layer 1</title>
  <path stroke-dasharray="5,2,2,2,2,2" d="m152.5,65.453125c2,21 4.497314,34.865524 6,60c0.358078,5.989304 1,24 2,35l1,4l0,1" id="svg_40" fill-opacity="null" stroke-opacity="null" stroke-width="3" stroke="#000" fill="none" class="QukNSbBO_2"></path>
  <path stroke-dasharray="5,2,2,2,2,2" d="m158.5,107.453125c16,-1 17.053497,-0.540497 19,-1c2.176254,-0.513741 4,-1 5,-1c1,0 2,0 4,0c1,0 2,0 4,0c1,0 2.693436,-0.458801 4,-1c1.847763,-0.765366 3.823746,-0.486259 6,-1c0.973251,-0.229752 2,0 3,0l2,0l1,0l1,0" id="svg_42" fill-opacity="null" stroke-opacity="null" stroke-width="3" stroke="#000" fill="none" class="QukNSbBO_3"></path>
  <path stroke-dasharray="5,2,2,2,2,2" d="m207.5,69.453125c1,20 2.999207,40.940102 4,66c0.678375,16.986465 1,23 1,28c0,1 1,1 1,-4l0,-4" id="svg_46" fill-opacity="null" stroke-opacity="null" stroke-width="3" stroke="#000" fill="none" class="QukNSbBO_4"></path>
  <path stroke-dasharray="5,2,2,2,2,2" d="m235.5,65.453125c-2,18 -2.97702,22.004326 -6,38c-3.969818,21.005722 -6.190887,30.954681 -8,39c-2.23732,9.949585 -4.175568,18.097885 -3,20c0.525726,0.850647 1,-1 2,-2l0,-3" id="svg_48" fill-opacity="null" stroke-opacity="null" stroke-width="3" stroke="#000" fill="none" class="QukNSbBO_5"></path>
  <path stroke-dasharray="5,2,2,2,2,2" d="m232.5,59.453125c8,14 9.375122,19.247765 14,30c6.184769,14.378761 17.149414,33.905602 19,37c8.725433,14.589951 10,20 11,22l1,3l-1,1l-1,0" id="svg_52" fill-opacity="null" stroke-opacity="null" stroke-width="3" stroke="#000" fill="none" class="QukNSbBO_6"></path>
  <path stroke-dasharray="5,2,2,2,2,2" d="m214.5,117.453125c17,0 20.076675,0.683525 32,-1c10.09787,-1.425774 19,-5 22,-6l5,-2l2,0l0,1" id="svg_53" fill-opacity="null" stroke-opacity="null" stroke-width="3" stroke="#000" fill="none" class="QukNSbBO_7"></path>
  <path stroke-dasharray="5,2,2,2,2,2" d="m280.5,58.453125c6,35 9.929169,52.006111 11,64c1.875946,21.011444 4,36 5,44l1,3l0,-1" id="svg_54" fill-opacity="null" stroke-opacity="null" stroke-width="3" stroke="#000" fill="none" class="QukNSbBO_8"></path>
  <path stroke-dasharray="5,2,2,2,2,2" d="m259.5,69.453125c25,-1 29.091003,-1.564598 37,0c11.184998,2.212677 20.795532,5.578987 26,14c3.325012,5.37999 1,15 -5,24l-39,7" id="svg_55" fill-opacity="null" stroke-opacity="null" stroke-width="3" stroke="#000" fill="none" class="QukNSbBO_9"></path>
  <path stroke-dasharray="5,2,2,2,2,2" d="m328.5,60.453125c3,22 5.337494,37.956612 8,60c2.290924,18.967117 3.691254,31.071793 5,36c1.623322,6.112686 2,7 2,6l0,-3" id="svg_56" fill-opacity="null" stroke-opacity="null" stroke-width="3" stroke="#000" fill="none" class="QukNSbBO_10"></path>
  <path stroke-dasharray="5,2,2,2,2,2" d="m320.5,65.453125c19,6 27.347198,8.288666 32,11c5.532349,3.223854 8.929108,8.002518 9,9c0.501251,7.053276 -3,13 -7,17c-10,10 -20,16 -25,18l-4,0l-2,-6" id="svg_58" fill-opacity="null" stroke-opacity="null" stroke-width="3" stroke="#000" fill="none" class="QukNSbBO_11"></path>
  <path stroke-dasharray="5,2,2,2,2,2" d="m364.5,63.453125c7,14 8.151215,20.295006 12,30c0.82431,2.078583 4,10 6,16l1,4" id="svg_59" fill-opacity="null" stroke-opacity="null" stroke-width="3" stroke="#000" fill="none" class="QukNSbBO_12"></path>
  <path stroke-dasharray="5,2,2,2,2,2" d="m407.5,58.453125c-5,19 -6.796631,24.093163 -11,33c-4.771606,10.11097 -8.432892,16.802429 -11,23c-2.420288,5.843124 -3,7 -4,9l-1,0" id="svg_60" fill-opacity="null" stroke-opacity="null" stroke-width="3" stroke="#000" fill="none" class="QukNSbBO_13"></path>
  <path stroke-dasharray="5,2,2,2,2,2" d="m386.5,115.453125c2,17 2.498749,24.946716 3,32c0.212677,2.992447 0,8 0,13c0,2 0,4 0,5c0,1 0,2 0,3l-1,0l-1,-1" id="svg_63" fill-opacity="null" stroke-opacity="null" stroke-width="3" stroke="#000" fill="none" class="QukNSbBO_14"></path>
  <path stroke-dasharray="5,2,2,2,2,2" d="m60.5,207.453125c4,22 7.047173,50.995331 9,71c2.049522,20.995239 3,35 3,41c0,3 0,4 0,3l0,-2l-1,-3" id="svg_64" fill-opacity="null" stroke-opacity="null" stroke-width="3" stroke="#000" fill="none" class="QukNSbBO_15"></path>
  <path stroke-dasharray="5,2,2,2,2,2" d="m41.5,214.453125c16,-3 24.920494,-3.800888 31,-4c10.044487,-0.328979 20.232964,3.589722 24,6c5.393578,3.450989 9.710213,8.042908 10,9c1.04483,3.450851 2,9 -42,38l62,-5l-54,54l-6,-6" id="svg_65" fill-opacity="null" stroke-opacity="null" stroke-width="3" stroke="#000" fill="none" class="QukNSbBO_16"></path>
  <path stroke-dasharray="5,2,2,2,2,2" stroke="#000" d="m118.5,209.453125c19,-1 22.044952,-0.266907 28,-1c4.092209,-0.503769 5,-1 4,0l0,1" id="svg_67" fill-opacity="null" stroke-opacity="null" stroke-width="3" fill="none" class="QukNSbBO_17"></path>
  <path stroke-dasharray="5,2,2,2,2,2" d="m134.5,210.453125c4,15 6.16362,28.151062 10,47c1.644653,8.080536 3.278229,18.948364 5,29c1.193832,6.969574 2,9 2,11l0,2l0,1" id="svg_69" fill-opacity="null" stroke-opacity="null" stroke-width="3" stroke="#000" fill="none" class="QukNSbBO_18"></path>
  <path stroke-dasharray="5,2,2,2,2,2" d="m132.5,302.453125c20,-1 25,-2 26,-2c2,0 4,0 5,1l1,0" id="svg_71" fill-opacity="null" stroke-opacity="null" stroke-width="3" stroke="#000" fill="none" class="QukNSbBO_19"></path>
  <path stroke-dasharray="5,2,2,2,2,2" d="m175.5,203.453125c6,22 8.402084,28.913712 11,42c3.553345,17.898987 5.123917,36.987091 6,46c1.164993,11.985107 1,19 1,22l0,-4" id="svg_72" fill-opacity="null" stroke-opacity="null" stroke-width="3" stroke="#000" fill="none" class="QukNSbBO_20"></path>
  <path stroke-dasharray="5,2,2,2,2,2" d="m168.5,211.453125c16,-1 25.029968,-0.488739 29,0c8.184433,1.007553 14.464462,3.464462 18,7c3.535538,3.535538 3.587601,7.017044 4,12c0.501709,6.062042 0.118103,12.072784 -3,17c-3.856125,6.09346 -13.783569,13.465851 -22,17c-10.752228,4.624878 -20,6 -22,6l-2,-2l0,-4" id="svg_73" fill-opacity="null" stroke-opacity="null" stroke-width="3" stroke="#000" fill="none" class="QukNSbBO_21"></path>
  <path stroke-dasharray="5,2,2,2,2,2" d="m189.5,266.453125c16,9 18.670715,10.721466 29,15c5.843124,2.420288 16.197662,7.563293 21,10c8.412949,4.268768 12,7 14,9l0,1l0,-1l-1,-1" id="svg_74" fill-opacity="null" stroke-opacity="null" stroke-width="3" stroke="#000" fill="none" class="QukNSbBO_22"></path>
  <path stroke-dasharray="5,2,2,2,2,2" d="m233.5,207.453125c21,4 23.003082,3.864059 26,4c11.034027,0.500519 17,1 22,2l3,1l0,1l0,1" id="svg_76" fill-opacity="null" stroke-opacity="null" stroke-width="3" stroke="#000" fill="none" class="QukNSbBO_23"></path>
  <path stroke-dasharray="5,2,2,2,2,2" d="m256.5,209.453125c1,16 1.904846,28.001129 2,32c0.500153,21.017853 1,37 0,47l0,4l0,8l0,-1" id="svg_78" fill-opacity="null" stroke-opacity="null" stroke-width="3" stroke="#000" fill="none" class="QukNSbBO_24"></path>
  <path stroke-dasharray="5,2,2,2,2,2" d="m292.5,222.453125c1,33 1.499725,38.975037 2,54c0.232941,6.996124 -0.499023,20.953308 -1,29c-0.124268,1.996124 0,4 0,3l0,-2" id="svg_79" fill-opacity="null" stroke-opacity="null" stroke-width="3" stroke="#000" fill="none" class="QukNSbBO_25"></path>
  <path stroke-dasharray="5,2,2,2,2,2" d="m329.5,222.453125c5,22 7.498291,48.937958 8,55c1.402161,16.942078 1,24 1,30l-1,1l0,-1" id="svg_80" fill-opacity="null" stroke-opacity="null" stroke-width="3" stroke="#000" fill="none" class="QukNSbBO_26"></path>
  <path stroke-dasharray="5,2,2,2,2,2" d="m289.5,262.453125c20,0 23,0 32,-1l6,-1l3,-1" id="svg_81" fill-opacity="null" stroke-opacity="null" stroke-width="3" stroke="#000" fill="none" class="QukNSbBO_27"></path>
  <path stroke-dasharray="5,2,2,2,2,2" d="m355.5,212.453125c2,28 4,46 4,63c0,5 -1,12 -1,21l1,2l0,-1l0,-1" id="svg_82" fill-opacity="null" stroke-opacity="null" stroke-width="3" stroke="#000" fill="none" class="QukNSbBO_28"></path>
  <path stroke-dasharray="5,2,2,2,2,2" d="m342.5,218.453125c15,-3 32.035187,-4.781143 46,2c8.995514,4.368118 16.598907,14.385315 13,31c-2.557983,11.809174 -16.394318,29.81546 -32,42c-4.595978,3.58844 -16,9 -24,10l-2,-3l0,-4l1,-3" id="svg_85" fill-opacity="null" stroke-opacity="null" stroke-width="3" stroke="#000" fill="none" class="QukNSbBO_29"></path>
  <path stroke-dasharray="5,2,2,2,2,2" d="m425.5,206.453125c-6,42 -9.644012,65.075623 -13,80c-0.904572,4.022644 -3,10 -3,12l0,-1l1,-4l0,-2" id="svg_87" fill-opacity="null" stroke-opacity="null" stroke-width="3" stroke="#000" fill="none" class="QukNSbBO_30"></path>
  <path stroke-dasharray="5,2,2,2,2,2" d="m427.5,202.453125c15,30 21.237244,44.684067 25,62c3.003021,13.819611 3,16 3,23l0,4l-1,-1" id="svg_89" fill-opacity="null" stroke-opacity="null" stroke-width="3" stroke="#000" fill="none" class="QukNSbBO_31"></path>
  <path stroke-dasharray="5,2,2,2,2,2" d="m414.5,255.453125c21,0 35,-3 37,-4l5,-2" id="svg_90" fill-opacity="null" stroke-opacity="null" stroke-width="3" stroke="#000" fill="none" class="QukNSbBO_32"></path>
  <path stroke-dasharray="5,2,2,2,2,2" d="m457.5,200.453125c13,23 17,33 19,38l3,6l2,4l0,1" id="svg_91" fill-opacity="null" stroke-opacity="null" stroke-width="3" stroke="#000" fill="none" class="QukNSbBO_33"></path>
  <path stroke-dasharray="5,2,2,2,2,2" d="m500.5,204.453125c-5,18 -10.07193,29.953278 -12,33c-6.236206,9.854431 -10,17 -13,21l-1,0" id="svg_92" fill-opacity="null" stroke-opacity="null" stroke-width="3" stroke="#000" fill="none" class="QukNSbBO_34"></path>
  <path stroke-dasharray="5,2,2,2,2,2" d="m483.5,240.453125c0,23 1.499756,29.976593 2,46c0.156036,4.997559 0,11 0,12l0,-1l-1,-1" id="svg_94" fill-opacity="null" stroke-opacity="null" stroke-width="3" stroke="#000" fill="none" class="QukNSbBO_35"></path>
  <path stroke-dasharray="5,2,2,2,2,2" d="m535.5,220.453125c-12,-13 -17.247131,-12.388306 -19,-11c-6.122559,4.849152 -7.718903,16.019897 -7,29c1.502289,27.124573 3.694458,33.082642 6,41c2.652405,9.10849 5,14 6,15l0,2l0,1l0,-3" id="svg_95" fill-opacity="null" stroke-opacity="null" stroke-width="3" stroke="#000" fill="none" class="QukNSbBO_36"></path>
  <path stroke-dasharray="5,2,2,2,2,2" d="m539.5,218.453125c18,-2 21.374634,-2.010727 24,3c5.188843,9.90332 2.987549,18.148621 1,28c-2.690002,13.332825 -10.005493,25.646851 -22,43c-6.482971,9.379272 -12.625305,16.413605 -17,20c-5.57666,4.571747 -7,5 -8,4l-1,0l0,-4l1,-4" id="svg_96" fill-opacity="null" stroke-opacity="null" stroke-width="3" stroke="#000" fill="none" class="QukNSbBO_37"></path>
 </g>
<style data-made-with="vivus-instant">.QukNSbBO_0{stroke-dasharray:1968 1970;stroke-dashoffset:1969;animation:QukNSbBO_draw 1021ms linear 0ms forwards;}.QukNSbBO_1{stroke-dasharray:400 402;stroke-dashoffset:401;animation:QukNSbBO_draw 208ms linear 1021ms forwards;}.QukNSbBO_2{stroke-dasharray:101 103;stroke-dashoffset:102;animation:QukNSbBO_draw 52ms linear 1229ms forwards;}.QukNSbBO_3{stroke-dasharray:50 52;stroke-dashoffset:51;animation:QukNSbBO_draw 26ms linear 1282ms forwards;}.QukNSbBO_4{stroke-dasharray:104 106;stroke-dashoffset:105;animation:QukNSbBO_draw 54ms linear 1309ms forwards;}.QukNSbBO_5{stroke-dasharray:105 107;stroke-dashoffset:106;animation:QukNSbBO_draw 54ms linear 1363ms forwards;}.QukNSbBO_6{stroke-dasharray:105 107;stroke-dashoffset:106;animation:QukNSbBO_draw 54ms linear 1418ms forwards;}.QukNSbBO_7{stroke-dasharray:64 66;stroke-dashoffset:65;animation:QukNSbBO_draw 33ms linear 1473ms forwards;}.QukNSbBO_8{stroke-dasharray:114 116;stroke-dashoffset:115;animation:QukNSbBO_draw 59ms linear 1507ms forwards;}.QukNSbBO_9{stroke-dasharray:133 135;stroke-dashoffset:134;animation:QukNSbBO_draw 69ms linear 1566ms forwards;}.QukNSbBO_10{stroke-dasharray:107 109;stroke-dashoffset:108;animation:QukNSbBO_draw 56ms linear 1636ms forwards;}.QukNSbBO_11{stroke-dasharray:108 110;stroke-dashoffset:109;animation:QukNSbBO_draw 56ms linear 1692ms forwards;}.QukNSbBO_12{stroke-dasharray:54 56;stroke-dashoffset:55;animation:QukNSbBO_draw 28ms linear 1749ms forwards;}.QukNSbBO_13{stroke-dasharray:72 74;stroke-dashoffset:73;animation:QukNSbBO_draw 37ms linear 1777ms forwards;}.QukNSbBO_14{stroke-dasharray:56 58;stroke-dashoffset:57;animation:QukNSbBO_draw 29ms linear 1815ms forwards;}.QukNSbBO_15{stroke-dasharray:122 124;stroke-dashoffset:123;animation:QukNSbBO_draw 63ms linear 1845ms forwards;}.QukNSbBO_16{stroke-dasharray:276 278;stroke-dashoffset:277;animation:QukNSbBO_draw 143ms linear 1908ms forwards;}.QukNSbBO_17{stroke-dasharray:35 37;stroke-dashoffset:36;animation:QukNSbBO_draw 18ms linear 2052ms forwards;}.QukNSbBO_18{stroke-dasharray:92 94;stroke-dashoffset:93;animation:QukNSbBO_draw 48ms linear 2071ms forwards;}.QukNSbBO_19{stroke-dasharray:33 35;stroke-dashoffset:34;animation:QukNSbBO_draw 17ms linear 2119ms forwards;}.QukNSbBO_20{stroke-dasharray:116 118;stroke-dashoffset:117;animation:QukNSbBO_draw 60ms linear 2137ms forwards;}.QukNSbBO_21{stroke-dasharray:138 140;stroke-dashoffset:139;animation:QukNSbBO_draw 72ms linear 2197ms forwards;}.QukNSbBO_22{stroke-dasharray:77 79;stroke-dashoffset:78;animation:QukNSbBO_draw 40ms linear 2269ms forwards;}.QukNSbBO_23{stroke-dasharray:54 56;stroke-dashoffset:55;animation:QukNSbBO_draw 28ms linear 2310ms forwards;}.QukNSbBO_24{stroke-dasharray:93 95;stroke-dashoffset:94;animation:QukNSbBO_draw 48ms linear 2338ms forwards;}.QukNSbBO_25{stroke-dasharray:89 91;stroke-dashoffset:90;animation:QukNSbBO_draw 46ms linear 2387ms forwards;}.QukNSbBO_26{stroke-dasharray:89 91;stroke-dashoffset:90;animation:QukNSbBO_draw 46ms linear 2434ms forwards;}.QukNSbBO_27{stroke-dasharray:42 44;stroke-dashoffset:43;animation:QukNSbBO_draw 22ms linear 2481ms forwards;}.QukNSbBO_28{stroke-dasharray:89 91;stroke-dashoffset:90;animation:QukNSbBO_draw 46ms linear 2503ms forwards;}.QukNSbBO_29{stroke-dasharray:174 176;stroke-dashoffset:175;animation:QukNSbBO_draw 90ms linear 2550ms forwards;}.QukNSbBO_30{stroke-dasharray:101 103;stroke-dashoffset:102;animation:QukNSbBO_draw 52ms linear 2640ms forwards;}.QukNSbBO_31{stroke-dasharray:96 98;stroke-dashoffset:97;animation:QukNSbBO_draw 50ms linear 2693ms forwards;}.QukNSbBO_32{stroke-dasharray:43 45;stroke-dashoffset:44;animation:QukNSbBO_draw 22ms linear 2744ms forwards;}.QukNSbBO_33{stroke-dasharray:55 57;stroke-dashoffset:56;animation:QukNSbBO_draw 29ms linear 2767ms forwards;}.QukNSbBO_34{stroke-dasharray:61 63;stroke-dashoffset:62;animation:QukNSbBO_draw 32ms linear 2796ms forwards;}.QukNSbBO_35{stroke-dasharray:61 63;stroke-dashoffset:62;animation:QukNSbBO_draw 32ms linear 2828ms forwards;}.QukNSbBO_36{stroke-dasharray:118 120;stroke-dashoffset:119;animation:QukNSbBO_draw 61ms linear 2860ms forwards;}.QukNSbBO_37{stroke-dasharray:149 151;stroke-dashoffset:150;animation:QukNSbBO_draw 77ms linear 2922ms forwards;}@keyframes QukNSbBO_draw{100%{stroke-dashoffset:0;}}@keyframes QukNSbBO_fade{0%{stroke-opacity:1;}94.44444444444444%{stroke-opacity:1;}100%{stroke-opacity:0;}}</style></svg>